<svg xmlns="http://www.w3.org/2000/svg" x="0px" y="0px"
width="24" height="24"
viewBox="0 0 172 172"
style=" fill:#000000;"><g fill="none" fill-rule="nonzero" stroke="none" stroke-width="1" stroke-linecap="butt" stroke-linejoin="miter" stroke-miterlimit="10" stroke-dasharray="" stroke-dashoffset="0" font-family="none" font-weight="none" font-size="none" text-anchor="none" style="mix-blend-mode: normal"><path d="M0,172v-172h172v172z" fill="none"></path><g fill="#cccccc"><path d="M30.15039,20.01628l-10.13411,10.13411l16.40495,16.40495c-19.11239,15.36761 -28.10189,35.2607 -28.68066,36.61719l-1.20378,2.82747l1.20378,2.82747c0.95317,2.22883 23.99344,54.50586 78.25944,54.50586c14.80883,0 27.2133,-3.94498 37.54101,-9.6582l18.3086,18.30859l10.13411,-10.13411zM86,28.66667c-8.67883,0 -16.48311,1.43781 -23.59961,3.69531l11.79981,11.7998c3.73383,-0.7095 7.63597,-1.16178 11.7998,-1.16178c38.67133,0 58.53465,32.88134 63.71615,42.97201c-2.107,4.03483 -6.72424,11.86699 -13.95541,19.75032l10.2181,10.2181c12.04,-13.029 17.81476,-26.03079 18.2806,-27.11295l1.20378,-2.82747l-1.20378,-2.82747c-0.95317,-2.22883 -23.99344,-54.50586 -78.25944,-54.50586zM46.66732,56.80143l14.69727,14.69727c-2.54096,4.24622 -4.03125,9.19008 -4.03125,14.5013c0,15.80967 12.857,28.66667 28.66667,28.66667c5.31122,0 10.25508,-1.49029 14.50131,-4.03125l12.3597,12.3597c-7.69485,3.64868 -16.6248,6.00489 -26.861,6.00489c-38.67133,0 -58.53465,-32.88134 -63.71615,-42.97201c2.97864,-5.70437 10.97118,-18.92775 24.38346,-29.22656zM87.52572,57.4873l26.98698,26.98698c-0.78117,-14.56983 -12.41715,-26.20581 -26.98698,-26.98698zM72.19857,82.33268l17.46875,17.46875c-1.17367,0.3155 -2.39229,0.5319 -3.66732,0.5319c-7.90483,0 -14.33333,-6.4285 -14.33333,-14.33333c0,-1.27503 0.2164,-2.49365 0.5319,-3.66732z"></path></g></g></svg>